<?xml version="1.0" standalone="no"?>
<!DOCTYPE svg PUBLIC "-//W3C//DTD SVG 20010904//EN"
 "http://www.w3.org/TR/2001/REC-SVG-20010904/DTD/svg10.dtd">
<svg version="1.0" xmlns="http://www.w3.org/2000/svg"
 width="700.000000pt" height="700.000000pt" viewBox="0 0 700.000000 700.000000"
 preserveAspectRatio="xMidYMid meet">
<metadata>
Created by potrace 1.14, written by Peter Selinger 2001-2017
</metadata>
<g transform="translate(0.000000,700.000000) scale(0.100000,-0.100000)"
fill="#000000" stroke="none">
<path d="M2618 6755 c-2 -2 -68 -6 -148 -10 -80 -3 -161 -8 -180 -10 -19 -2
-75 -7 -125 -10 -49 -4 -103 -8 -120 -10 -16 -1 -64 -5 -105 -9 -41 -4 -91 -9
-110 -11 -19 -3 -57 -7 -85 -10 -107 -12 -183 -22 -275 -35 -36 -5 -83 -11
-105 -14 -96 -12 -321 -48 -498 -81 -106 -19 -205 -37 -222 -40 -16 -3 -50
-10 -75 -15 -25 -5 -58 -12 -75 -15 -147 -27 -145 -27 -146 -49 0 -11 0 -329
0 -706 0 -377 1 -1713 1 -2970 l1 -2285 23 -45 c75 -149 285 -142 355 12 16
34 17 235 15 2862 l-2 2826 22 5 c83 18 247 47 391 70 32 5 237 36 265 40 14
2 44 6 68 10 52 8 81 12 157 20 33 3 71 8 85 10 14 2 50 6 80 10 30 3 71 8 90
10 19 3 62 7 95 10 114 10 170 14 225 20 62 5 161 11 360 21 252 13 897 6
1087 -11 21 -2 81 -6 133 -9 117 -8 204 -15 250 -21 19 -2 69 -7 110 -11 41
-3 89 -7 105 -9 17 -2 57 -7 90 -10 33 -3 69 -7 80 -9 11 -2 58 -7 105 -11 47
-4 87 -8 90 -10 3 -2 43 -6 90 -10 47 -4 87 -8 90 -10 3 -2 41 -6 85 -9 44 -4
87 -9 95 -11 14 -4 89 -12 190 -20 45 -4 134 -13 200 -20 19 -2 67 -6 105 -10
39 -3 88 -7 110 -10 22 -2 81 -7 130 -10 50 -3 113 -8 140 -10 96 -8 401 -18
545 -19 134 0 148 1 186 23 77 43 117 137 95 219 -16 60 -37 89 -86 118 -50
29 -75 31 -365 39 -118 3 -244 8 -280 10 -193 12 -326 22 -410 30 -19 2 -69 7
-110 10 -41 4 -85 8 -97 10 -12 2 -57 6 -100 10 -43 4 -89 8 -103 11 -14 2
-56 6 -95 10 -38 3 -78 8 -87 9 -9 2 -48 6 -85 10 -37 3 -79 8 -93 10 -14 3
-52 7 -85 10 -33 3 -71 8 -85 10 -14 3 -54 7 -90 10 -36 3 -81 7 -100 10 -84
10 -313 33 -415 40 -44 4 -96 8 -115 10 -19 2 -82 6 -140 10 -58 4 -132 9
-165 11 -72 5 -962 14 -967 9z"/>
<path d="M4867 5393 c-1 -1 -808 -3 -1793 -6 -986 -2 -1796 -7 -1802 -11 -14
-8 -12 -306 2 -307 28 -2 4159 8 4203 10 10 1 13 40 12 156 0 153 0 155 -22
156 -37 2 -599 4 -600 2z"/>
<path d="M5978 5380 l-23 -6 2 -684 c0 -377 4 -1142 6 -1700 5 -811 8 -1922 7
-2165 l0 -40 -208 208 -207 207 -70 -70 -70 -71 330 -325 329 -325 264 268
c145 147 291 296 324 329 l60 61 -68 67 c-37 36 -68 66 -69 66 -2 0 -94 -92
-206 -205 -111 -112 -204 -203 -207 -201 -2 2 -6 415 -8 918 -2 502 -6 1280
-9 1728 -2 448 -4 1068 -5 1378 0 435 -3 562 -13 563 -62 4 -140 3 -159 -1z"/>
<path d="M4757 4503 c-1 -1 -724 -4 -1607 -7 -883 -2 -1667 -5 -1742 -5 l-138
-1 0 -155 c0 -117 3 -155 13 -156 25 -3 4041 8 4183 10 l32 1 -3 153 c-1 83
-3 154 -4 157 -1 4 -730 8 -734 3z"/>
<path d="M4927 3613 c-1 -1 -814 -4 -1807 -7 -993 -3 -1815 -5 -1828 -5 l-23
-1 3 -157 3 -157 1235 3 c679 2 1629 4 2110 6 l875 2 1 156 c0 136 -2 157 -15
158 -28 2 -553 4 -554 2z"/>
<path d="M4786 2723 c-1 -2 -2255 -10 -3228 -12 l-298 -1 0 -158 0 -158 817 3
c1441 4 3337 11 3373 12 l35 1 0 155 c0 131 -2 155 -15 156 -32 2 -682 4 -684
2z"/>
<path d="M5087 1833 c-1 -1 -778 -4 -1727 -7 -949 -2 -1814 -5 -1923 -5 l-197
-1 2 -157 3 -158 1310 4 c1432 3 2897 9 2906 10 3 1 5 71 5 156 l1 155 -26 1
c-100 2 -353 4 -354 2z"/>
</g>
</svg>
